<svg width="175" height="48" viewBox="0 0 175 48" fill="none" xmlns="http://www.w3.org/2000/svg">
<path d="M69.3057 27.2656C69.3057 26.9668 69.2588 26.7031 69.165 26.4746C69.0771 26.2402 68.9189 26.0293 68.6904 25.8418C68.4678 25.6543 68.1572 25.4756 67.7588 25.3057C67.3662 25.1357 66.8682 24.9629 66.2646 24.7871C65.6318 24.5996 65.0605 24.3916 64.5508 24.1631C64.041 23.9287 63.6045 23.6621 63.2412 23.3633C62.8779 23.0645 62.5996 22.7217 62.4062 22.335C62.2129 21.9482 62.1162 21.5059 62.1162 21.0078C62.1162 20.5098 62.2188 20.0498 62.4238 19.6279C62.6289 19.2061 62.9219 18.8398 63.3027 18.5293C63.6895 18.2129 64.1494 17.9668 64.6826 17.791C65.2158 17.6152 65.8105 17.5273 66.4668 17.5273C67.4277 17.5273 68.2422 17.7119 68.9102 18.0811C69.584 18.4443 70.0967 18.9219 70.4482 19.5137C70.7998 20.0996 70.9756 20.7266 70.9756 21.3945H69.2881C69.2881 20.9141 69.1855 20.4893 68.9805 20.1201C68.7754 19.7451 68.4648 19.4521 68.0488 19.2412C67.6328 19.0244 67.1055 18.916 66.4668 18.916C65.8633 18.916 65.3652 19.0068 64.9727 19.1885C64.5801 19.3701 64.2871 19.6162 64.0938 19.9268C63.9062 20.2373 63.8125 20.5918 63.8125 20.9902C63.8125 21.2598 63.8682 21.5059 63.9795 21.7285C64.0967 21.9453 64.2754 22.1475 64.5156 22.335C64.7617 22.5225 65.0723 22.6953 65.4473 22.8535C65.8281 23.0117 66.2822 23.1641 66.8096 23.3105C67.5361 23.5156 68.1631 23.7441 68.6904 23.9961C69.2178 24.248 69.6514 24.5322 69.9912 24.8486C70.3369 25.1592 70.5918 25.5137 70.7559 25.9121C70.9258 26.3047 71.0107 26.75 71.0107 27.248C71.0107 27.7695 70.9053 28.2412 70.6943 28.6631C70.4834 29.085 70.1816 29.4453 69.7891 29.7441C69.3965 30.043 68.9248 30.2744 68.374 30.4385C67.8291 30.5967 67.2197 30.6758 66.5459 30.6758C65.9541 30.6758 65.3711 30.5938 64.7969 30.4297C64.2285 30.2656 63.71 30.0195 63.2412 29.6914C62.7783 29.3633 62.4062 28.959 62.125 28.4785C61.8496 27.9922 61.7119 27.4297 61.7119 26.791H63.3994C63.3994 27.2305 63.4844 27.6084 63.6543 27.9248C63.8242 28.2354 64.0557 28.4932 64.3486 28.6982C64.6475 28.9033 64.9844 29.0557 65.3594 29.1553C65.7402 29.249 66.1357 29.2959 66.5459 29.2959C67.1377 29.2959 67.6387 29.2139 68.0488 29.0498C68.459 28.8857 68.7695 28.6514 68.9805 28.3467C69.1973 28.042 69.3057 27.6816 69.3057 27.2656ZM76.7324 29.3398C77.1191 29.3398 77.4766 29.2607 77.8047 29.1025C78.1328 28.9443 78.4023 28.7275 78.6133 28.4521C78.8242 28.1709 78.9443 27.8516 78.9736 27.4941H80.5205C80.4912 28.0566 80.3008 28.5811 79.9492 29.0674C79.6035 29.5479 79.1494 29.9375 78.5869 30.2363C78.0244 30.5293 77.4062 30.6758 76.7324 30.6758C76.0176 30.6758 75.3936 30.5498 74.8604 30.2979C74.333 30.0459 73.8936 29.7002 73.542 29.2607C73.1963 28.8213 72.9355 28.3174 72.7598 27.749C72.5898 27.1748 72.5049 26.5684 72.5049 25.9297V25.5605C72.5049 24.9219 72.5898 24.3184 72.7598 23.75C72.9355 23.1758 73.1963 22.6689 73.542 22.2295C73.8936 21.79 74.333 21.4443 74.8604 21.1924C75.3936 20.9404 76.0176 20.8145 76.7324 20.8145C77.4766 20.8145 78.127 20.9668 78.6836 21.2715C79.2402 21.5703 79.6768 21.9805 79.9932 22.502C80.3154 23.0176 80.4912 23.6035 80.5205 24.2598H78.9736C78.9443 23.8672 78.833 23.5127 78.6396 23.1963C78.4521 22.8799 78.1943 22.6279 77.8662 22.4404C77.5439 22.2471 77.166 22.1504 76.7324 22.1504C76.2344 22.1504 75.8154 22.25 75.4756 22.4492C75.1416 22.6426 74.875 22.9062 74.6758 23.2402C74.4824 23.5684 74.3418 23.9346 74.2539 24.3389C74.1719 24.7373 74.1309 25.1445 74.1309 25.5605V25.9297C74.1309 26.3457 74.1719 26.7559 74.2539 27.1602C74.3359 27.5645 74.4736 27.9307 74.667 28.2588C74.8662 28.5869 75.1328 28.8506 75.4668 29.0498C75.8066 29.2432 76.2285 29.3398 76.7324 29.3398ZM83.9746 22.4844V30.5H82.3486V20.9902H83.9307L83.9746 22.4844ZM86.9453 20.9375L86.9365 22.4492C86.8018 22.4199 86.6729 22.4023 86.5498 22.3965C86.4326 22.3848 86.2979 22.3789 86.1455 22.3789C85.7705 22.3789 85.4395 22.4375 85.1523 22.5547C84.8652 22.6719 84.6221 22.8359 84.4229 23.0469C84.2236 23.2578 84.0654 23.5098 83.9482 23.8027C83.8369 24.0898 83.7637 24.4062 83.7285 24.752L83.2715 25.0156C83.2715 24.4414 83.3271 23.9023 83.4385 23.3984C83.5557 22.8945 83.7344 22.4492 83.9746 22.0625C84.2148 21.6699 84.5195 21.3652 84.8887 21.1484C85.2637 20.9258 85.709 20.8145 86.2246 20.8145C86.3418 20.8145 86.4766 20.8291 86.6289 20.8584C86.7812 20.8818 86.8867 20.9082 86.9453 20.9375ZM94.2666 28.3027V20.9902H95.9014V30.5H94.3457L94.2666 28.3027ZM94.5742 26.2988L95.251 26.2812C95.251 26.9141 95.1836 27.5 95.0488 28.0391C94.9199 28.5723 94.709 29.0352 94.416 29.4277C94.123 29.8203 93.7393 30.1279 93.2646 30.3506C92.79 30.5674 92.2129 30.6758 91.5332 30.6758C91.0703 30.6758 90.6455 30.6084 90.2588 30.4736C89.8779 30.3389 89.5498 30.1309 89.2744 29.8496C88.999 29.5684 88.7852 29.2021 88.6328 28.751C88.4863 28.2998 88.4131 27.7578 88.4131 27.125V20.9902H90.0391V27.1426C90.0391 27.5703 90.0859 27.9248 90.1797 28.2061C90.2793 28.4814 90.4111 28.7012 90.5752 28.8652C90.7451 29.0234 90.9326 29.1348 91.1377 29.1992C91.3486 29.2637 91.5654 29.2959 91.7881 29.2959C92.4795 29.2959 93.0273 29.1641 93.4316 28.9004C93.8359 28.6309 94.126 28.2705 94.3018 27.8193C94.4834 27.3623 94.5742 26.8555 94.5742 26.2988ZM99.9971 22.8799V30.5H98.3623V20.9902H99.9092L99.9971 22.8799ZM99.6631 25.3848L98.9072 25.3584C98.9131 24.708 98.998 24.1074 99.1621 23.5566C99.3262 23 99.5693 22.5166 99.8916 22.1064C100.214 21.6963 100.615 21.3799 101.096 21.1572C101.576 20.9287 102.133 20.8145 102.766 20.8145C103.211 20.8145 103.621 20.8789 103.996 21.0078C104.371 21.1309 104.696 21.3271 104.972 21.5967C105.247 21.8662 105.461 22.2119 105.613 22.6338C105.766 23.0557 105.842 23.5654 105.842 24.1631V30.5H104.216V24.2422C104.216 23.7441 104.131 23.3457 103.961 23.0469C103.797 22.748 103.562 22.5312 103.258 22.3965C102.953 22.2559 102.596 22.1855 102.186 22.1855C101.705 22.1855 101.304 22.2705 100.981 22.4404C100.659 22.6104 100.401 22.8447 100.208 23.1436C100.015 23.4424 99.874 23.7852 99.7861 24.1719C99.7041 24.5527 99.6631 24.957 99.6631 25.3848ZM105.824 24.4883L104.734 24.8223C104.74 24.3008 104.825 23.7998 104.989 23.3193C105.159 22.8389 105.402 22.4111 105.719 22.0361C106.041 21.6611 106.437 21.3652 106.905 21.1484C107.374 20.9258 107.91 20.8145 108.514 20.8145C109.023 20.8145 109.475 20.8818 109.867 21.0166C110.266 21.1514 110.6 21.3594 110.869 21.6406C111.145 21.916 111.353 22.2705 111.493 22.7041C111.634 23.1377 111.704 23.6533 111.704 24.251V30.5H110.069V24.2334C110.069 23.7002 109.984 23.2871 109.814 22.9941C109.65 22.6953 109.416 22.4873 109.111 22.3701C108.812 22.2471 108.455 22.1855 108.039 22.1855C107.682 22.1855 107.365 22.2471 107.09 22.3701C106.814 22.4932 106.583 22.6631 106.396 22.8799C106.208 23.0908 106.064 23.334 105.965 23.6094C105.871 23.8848 105.824 24.1777 105.824 24.4883ZM123.007 28.5576L126.777 17.7031H128.614L123.877 30.5H122.567L123.007 28.5576ZM119.482 17.7031L123.218 28.5576L123.684 30.5H122.374L117.646 17.7031H119.482ZM129.256 25.8506V25.6484C129.256 24.9629 129.355 24.3271 129.555 23.7412C129.754 23.1494 130.041 22.6367 130.416 22.2031C130.791 21.7637 131.245 21.4238 131.778 21.1836C132.312 20.9375 132.909 20.8145 133.571 20.8145C134.239 20.8145 134.84 20.9375 135.373 21.1836C135.912 21.4238 136.369 21.7637 136.744 22.2031C137.125 22.6367 137.415 23.1494 137.614 23.7412C137.813 24.3271 137.913 24.9629 137.913 25.6484V25.8506C137.913 26.5361 137.813 27.1719 137.614 27.7578C137.415 28.3438 137.125 28.8564 136.744 29.2959C136.369 29.7295 135.915 30.0693 135.382 30.3154C134.854 30.5557 134.257 30.6758 133.589 30.6758C132.921 30.6758 132.32 30.5557 131.787 30.3154C131.254 30.0693 130.797 29.7295 130.416 29.2959C130.041 28.8564 129.754 28.3438 129.555 27.7578C129.355 27.1719 129.256 26.5361 129.256 25.8506ZM130.882 25.6484V25.8506C130.882 26.3252 130.938 26.7734 131.049 27.1953C131.16 27.6113 131.327 27.9805 131.55 28.3027C131.778 28.625 132.062 28.8799 132.402 29.0674C132.742 29.249 133.138 29.3398 133.589 29.3398C134.034 29.3398 134.424 29.249 134.758 29.0674C135.098 28.8799 135.379 28.625 135.602 28.3027C135.824 27.9805 135.991 27.6113 136.103 27.1953C136.22 26.7734 136.278 26.3252 136.278 25.8506V25.6484C136.278 25.1797 136.22 24.7373 136.103 24.3213C135.991 23.8994 135.821 23.5273 135.593 23.2051C135.37 22.877 135.089 22.6191 134.749 22.4316C134.415 22.2441 134.022 22.1504 133.571 22.1504C133.126 22.1504 132.733 22.2441 132.394 22.4316C132.06 22.6191 131.778 22.877 131.55 23.2051C131.327 23.5273 131.16 23.8994 131.049 24.3213C130.938 24.7373 130.882 25.1797 130.882 25.6484ZM143.934 20.9902V22.2383H138.792V20.9902H143.934ZM140.532 18.6787H142.158V28.1445C142.158 28.4668 142.208 28.71 142.308 28.874C142.407 29.0381 142.536 29.1465 142.694 29.1992C142.853 29.252 143.022 29.2783 143.204 29.2783C143.339 29.2783 143.479 29.2666 143.626 29.2432C143.778 29.2139 143.893 29.1904 143.969 29.1729L143.978 30.5C143.849 30.541 143.679 30.5791 143.468 30.6143C143.263 30.6553 143.014 30.6758 142.721 30.6758C142.322 30.6758 141.956 30.5967 141.622 30.4385C141.288 30.2803 141.021 30.0166 140.822 29.6475C140.629 29.2725 140.532 28.7686 140.532 28.1357V18.6787ZM147.607 20.9902V30.5H145.973V20.9902H147.607ZM145.85 18.4678C145.85 18.2041 145.929 17.9814 146.087 17.7998C146.251 17.6182 146.491 17.5273 146.808 17.5273C147.118 17.5273 147.355 17.6182 147.52 17.7998C147.689 17.9814 147.774 18.2041 147.774 18.4678C147.774 18.7197 147.689 18.9365 147.52 19.1182C147.355 19.2939 147.118 19.3818 146.808 19.3818C146.491 19.3818 146.251 19.2939 146.087 19.1182C145.929 18.9365 145.85 18.7197 145.85 18.4678ZM151.844 23.0205V30.5H150.218V20.9902H151.756L151.844 23.0205ZM151.457 25.3848L150.78 25.3584C150.786 24.708 150.883 24.1074 151.07 23.5566C151.258 23 151.521 22.5166 151.861 22.1064C152.201 21.6963 152.605 21.3799 153.074 21.1572C153.549 20.9287 154.073 20.8145 154.647 20.8145C155.116 20.8145 155.538 20.8789 155.913 21.0078C156.288 21.1309 156.607 21.3301 156.871 21.6055C157.141 21.8809 157.346 22.2383 157.486 22.6777C157.627 23.1113 157.697 23.6416 157.697 24.2686V30.5H156.062V24.251C156.062 23.7529 155.989 23.3545 155.843 23.0557C155.696 22.751 155.482 22.5312 155.201 22.3965C154.92 22.2559 154.574 22.1855 154.164 22.1855C153.76 22.1855 153.391 22.2705 153.057 22.4404C152.729 22.6104 152.444 22.8447 152.204 23.1436C151.97 23.4424 151.785 23.7852 151.65 24.1719C151.521 24.5527 151.457 24.957 151.457 25.3848ZM166.328 20.9902H167.805V30.2979C167.805 31.1357 167.635 31.8506 167.295 32.4424C166.955 33.0342 166.48 33.4824 165.871 33.7871C165.268 34.0977 164.57 34.2529 163.779 34.2529C163.451 34.2529 163.064 34.2002 162.619 34.0947C162.18 33.9951 161.746 33.8223 161.318 33.5762C160.896 33.3359 160.542 33.0107 160.255 32.6006L161.107 31.6338C161.506 32.1143 161.922 32.4482 162.355 32.6357C162.795 32.8232 163.229 32.917 163.656 32.917C164.172 32.917 164.617 32.8203 164.992 32.627C165.367 32.4336 165.657 32.1465 165.862 31.7656C166.073 31.3906 166.179 30.9277 166.179 30.377V23.082L166.328 20.9902ZM159.78 25.8506V25.666C159.78 24.9395 159.865 24.2803 160.035 23.6885C160.211 23.0908 160.46 22.5781 160.782 22.1504C161.11 21.7227 161.506 21.3945 161.969 21.166C162.432 20.9316 162.953 20.8145 163.533 20.8145C164.131 20.8145 164.652 20.9199 165.098 21.1309C165.549 21.3359 165.93 21.6377 166.24 22.0361C166.557 22.4287 166.806 22.9033 166.987 23.46C167.169 24.0166 167.295 24.6465 167.365 25.3496V26.1582C167.301 26.8555 167.175 27.4824 166.987 28.0391C166.806 28.5957 166.557 29.0703 166.24 29.4629C165.93 29.8555 165.549 30.1572 165.098 30.3682C164.646 30.5732 164.119 30.6758 163.516 30.6758C162.947 30.6758 162.432 30.5557 161.969 30.3154C161.512 30.0752 161.119 29.7383 160.791 29.3047C160.463 28.8711 160.211 28.3613 160.035 27.7754C159.865 27.1836 159.78 26.542 159.78 25.8506ZM161.406 25.666V25.8506C161.406 26.3252 161.453 26.7705 161.547 27.1865C161.646 27.6025 161.796 27.9688 161.995 28.2852C162.2 28.6016 162.461 28.8506 162.777 29.0322C163.094 29.208 163.472 29.2959 163.911 29.2959C164.45 29.2959 164.896 29.1816 165.247 28.9531C165.599 28.7246 165.877 28.4229 166.082 28.0479C166.293 27.6729 166.457 27.2656 166.574 26.8262V24.708C166.51 24.3857 166.41 24.0752 166.275 23.7764C166.146 23.4717 165.977 23.2021 165.766 22.9678C165.561 22.7275 165.306 22.5371 165.001 22.3965C164.696 22.2559 164.339 22.1855 163.929 22.1855C163.483 22.1855 163.1 22.2793 162.777 22.4668C162.461 22.6484 162.2 22.9004 161.995 23.2227C161.796 23.5391 161.646 23.9082 161.547 24.3301C161.453 24.7461 161.406 25.1914 161.406 25.666Z" fill="#9059FF"/>
<path d="M16.7928 33.7481C17.1275 34.0829 17.774 34.0752 17.774 34.0752H30.2033C30.2033 34.0752 30.8575 34.0752 31.1846 33.7481C31.5117 33.421 31.5344 32.7668 31.5344 32.7668V15.1042C31.5344 15.1042 31.5117 14.45 31.1846 14.1229C30.8575 13.7958 30.2033 13.7958 30.2033 13.7958H17.774C17.774 13.7958 17.1199 13.7958 16.7928 14.1229C16.4657 14.45 16.4657 15.1042 16.4657 15.1042V32.7668C16.4657 32.7668 16.458 33.4134 16.7928 33.7481Z" fill="#5321B3"/>
<path d="M25.4084 28.8645L28.9995 25.1044L26.6054 22.5976L28.9995 20.0909L26.6054 17.5841L27.8024 16.3307H24.2113V20.0909L25.4084 18.8375L26.6054 20.0909L24.2113 22.5976L26.6054 25.1044L24.2113 27.6111L25.4084 28.8645Z" fill="#DDE0E3"/>
<path d="M22.9086 19.0066L19.0006 22.7667L21.606 25.2735L19.0006 27.7802L21.606 30.287L20.3033 31.5404H24.2113V27.7802L22.9086 29.0336L21.606 27.7802L24.2113 25.2735L21.606 22.7667L24.2113 20.26L22.9086 19.0066Z" fill="#DDE0E3"/>
<path fill-rule="evenodd" clip-rule="evenodd" d="M45 24C45 35.598 35.598 45 24 45C12.402 45 3 35.598 3 24C3 12.402 12.402 3 24 3C35.598 3 45 12.402 45 24ZM27.4364 43.9458C26.3195 44.1368 25.1714 44.2364 24 44.2364C22.8286 44.2364 21.6805 44.1368 20.5636 43.9458C15.7198 43.1172 11.4636 40.5671 8.44706 36.9475C6.97723 35.1838 5.80174 33.1662 4.99605 30.9701C4.19881 28.7971 3.76364 26.4494 3.76364 24C3.76364 21.5401 4.20254 19.1828 5.0063 17.002C5.8082 14.8262 6.97326 12.8262 8.42796 11.0755C11.4456 7.44373 15.7096 4.88455 20.5636 4.05421C21.6805 3.86316 22.8286 3.76364 24 3.76364C25.1714 3.76364 26.3195 3.86316 27.4364 4.05421C32.2802 4.8828 36.5364 7.43296 39.553 11.0525C41.0228 12.8162 42.1983 14.8338 43.0039 17.0298C43.8012 19.2029 44.2364 21.5506 44.2364 24C44.2364 26.4599 43.7975 28.8172 42.9937 30.9981C42.1918 33.1738 41.0267 35.1738 39.572 36.9245C36.5544 40.5563 32.2904 43.1155 27.4364 43.9458Z" fill="#9059FF"/>
<path fill-rule="evenodd" clip-rule="evenodd" d="M24 37.3636C25.188 37.3636 26.3399 37.2086 27.4364 36.9177C29.7636 36.3002 31.8415 35.0705 33.4874 33.4115C35.097 31.789 36.2934 29.7557 36.9052 27.4829C37.2042 26.3725 37.3636 25.2049 37.3636 24C37.3636 22.7998 37.2054 21.6366 36.9087 20.53C36.2952 18.2419 35.0895 16.1961 33.4659 14.5669C31.8235 12.9188 29.7535 11.6971 27.4364 11.0823C26.3399 10.7914 25.188 10.6364 24 10.6364C22.812 10.6364 21.6601 10.7914 20.5636 11.0823C18.2421 11.6983 16.1686 12.9235 14.5246 14.5764C12.9089 16.2009 11.7082 18.2386 11.0948 20.5171C10.7958 21.6275 10.6364 22.7952 10.6364 24C10.6364 25.2002 10.7946 26.3634 11.0913 27.47C11.7048 29.7581 12.9106 31.804 14.5341 33.4331C16.1765 35.0812 18.2465 36.3029 20.5636 36.9177C21.6601 37.2086 22.812 37.3636 24 37.3636ZM24 36.6C30.9588 36.6 36.6 30.9588 36.6 24C36.6 17.0412 30.9588 11.4 24 11.4C17.0412 11.4 11.4 17.0412 11.4 24C11.4 30.9588 17.0412 36.6 24 36.6Z" fill="#9059FF"/>
<path d="M27.4364 4.05421V11.0823C29.7535 11.6971 31.8235 12.9188 33.4659 14.5669L39.553 11.0525C36.5364 7.43296 32.2802 4.8828 27.4364 4.05421Z" fill="#9059FF"/>
<path d="M8.42796 11.0755L14.5246 14.5764C16.1686 12.9235 18.2421 11.6983 20.5636 11.0823V4.05421C15.7096 4.88455 11.4456 7.44373 8.42796 11.0755Z" fill="#9059FF"/>
<path d="M3.76364 24C3.76364 26.4494 4.19881 28.7971 4.99605 30.9701L11.0913 27.47C10.7946 26.3634 10.6364 25.2002 10.6364 24C10.6364 22.7952 10.7958 21.6275 11.0948 20.5171L5.0063 17.002C4.20254 19.1828 3.76364 21.5401 3.76364 24Z" fill="#9059FF"/>
<path d="M20.5636 43.9458L20.5636 36.9177C18.2465 36.3029 16.1765 35.0812 14.5341 33.4331L8.44706 36.9475C11.4636 40.5671 15.7198 43.1172 20.5636 43.9458Z" fill="#9059FF"/>
<path d="M27.4364 36.9177V43.9458C32.2904 43.1155 36.5544 40.5563 39.572 36.9245L33.4874 33.4115C31.8415 35.0705 29.7636 36.3002 27.4364 36.9177Z" fill="#9059FF"/>
<path d="M44.2364 24C44.2364 21.5506 43.8012 19.2029 43.0039 17.0298L36.9087 20.53C37.2054 21.6366 37.3636 22.7998 37.3636 24C37.3636 25.2049 37.2042 26.3725 36.9052 27.4829L42.9937 30.9981C43.7975 28.8172 44.2364 26.4599 44.2364 24Z" fill="#9059FF"/>
</svg>
